<?xml version="1.0" encoding="utf-8"?>
<!-- Generator: Adobe Illustrator 14.0.0, SVG Export Plug-In . SVG Version: 6.00 Build 43363)  -->
<!DOCTYPE svg PUBLIC "-//W3C//DTD SVG 1.1//EN" "http://www.w3.org/Graphics/SVG/1.1/DTD/svg11.dtd">
<svg version="1.1" id="Layer_1" xmlns="http://www.w3.org/2000/svg" xmlns:xlink="http://www.w3.org/1999/xlink" x="0px" y="0px"
	 width="103.697px" height="10.44px" viewBox="0 0 103.697 10.44" enable-background="new 0 0 103.697 10.44" xml:space="preserve">
<g>
	<g>
		<g>
			<g>
				<path fill="#FFFFFF" d="M71.622,10.114l-5.799-7.127c0,0-0.085-0.098-0.238-0.098c-0.184,0-0.243,0.08-0.243,0.08l-5.849,7.172
					l-0.164,0.139c-0.269,0.183-0.586,0.263-0.908,0.263c-0.323,0-0.646-0.08-0.923-0.27l0,0l-0.167-0.143l-7.127-8.627L50.11,1.353
					c-0.068-0.124-0.106-0.258-0.106-0.403l0,0c0.013-0.326,0.214-0.578,0.463-0.725l0,0c0.251-0.15,0.543-0.222,0.867-0.225
					c0.323-0.002,0.632,0.078,0.916,0.276l0,0l0.161,0.139l5.757,7.146c0,0,0.087,0.093,0.238,0.087
					c0.201-0.007,0.246-0.072,0.246-0.072l5.846-7.17c0.064-0.068,0.161-0.135,0.161-0.135c0.268-0.187,0.593-0.267,0.911-0.267l0,0
					c0.321,0,0.646,0.083,0.923,0.268l0,0c0,0,0.119,0.102,0.173,0.149l5.816,7.15c0,0,0.053,0.087,0.24,0.08
					c0.18-0.003,0.233-0.074,0.233-0.074l5.836-7.169l0.167-0.14c0.271-0.181,0.596-0.262,0.916-0.263l0,0
					c0.316,0,0.641,0.081,0.915,0.27l0,0l0.166,0.141l7.242,8.62l0.1,0.156c0.061,0.115,0.101,0.244,0.102,0.379l0,0
					c-0.001,0,0,0.02,0,0.02c-0.014,0.325-0.214,0.577-0.463,0.725l0,0c-0.251,0.149-0.558,0.22-0.868,0.225l0,0
					c-0.304,0-0.63-0.076-0.915-0.274l-0.145-0.125l-5.919-7.187c0,0-0.065-0.058-0.23-0.056c-0.171,0.001-0.227,0.076-0.227,0.076
					l-5.832,7.167l-0.163,0.137c-0.269,0.186-0.595,0.264-0.913,0.264l0,0C72.324,10.539,71.916,10.42,71.622,10.114L71.622,10.114"
					/>
			</g>
		</g>
		<path fill="#FFFFFF" d="M78.75,8.703c-0.513-0.007-0.881-0.473-0.881-1.003l0,0c0-0.53,0.368-0.997,0.881-1.003l0,0h2.243
			c0.514,0.006,0.88,0.474,0.881,1.003l0,0c0,0.53-0.367,0.996-0.881,1.003l0,0H78.75L78.75,8.703z"/>
	</g>
	<g>
		<path fill="#FFFFFF" d="M13.853,4.853V4.849c-0.197-2.425-2.015-4.396-4.416-4.778l-0.4-0.049L8.62,0.004H5.26l-0.41,0.017
			L4.442,0.069C2.039,0.447,0.204,2.43,0.019,4.846L0.002,5.258H0l0.015,0.405v0.005c0.197,2.425,2.015,4.425,4.416,4.808l0.4,0.048
			l0.417,0.018h3.359l0.41-0.016l0.409-0.048c2.403-0.377,4.238-2.391,4.423-4.807l0.017-0.412h0.002L13.853,4.853z M8.908,8.422
			l-0.31,0.015H5.262L4.939,8.42C3.046,8.163,2.122,6.707,2.114,5.258C2.121,3.81,3.045,2.384,4.96,2.124L5.27,2.11h3.336
			l0.323,0.016c1.893,0.257,2.817,1.684,2.825,3.132C11.747,6.706,10.823,8.163,8.908,8.422z"/>
		<path fill="#FFFFFF" d="M88.173,0.07h13.313v2.089h-5.612v8.301H94l0,0h-0.215V2.159h-5.612V0.07z"/>
		<g>
			<path fill="#FFFFFF" d="M101.973,9.131h-0.487v1.31h-0.174v-1.31h-0.486V8.969h1.147V9.131z"/>
			<path fill="#FFFFFF" d="M102.178,8.969h0.26l0.499,1.153h0.004l0.503-1.153h0.254v1.471h-0.175V9.207h-0.004l-0.527,1.233h-0.106
				l-0.528-1.233h-0.003v1.233h-0.176V8.969z"/>
		</g>
		<path fill="#FFFFFF" d="M17.862,10.459V0.069l9.739,0.003l0.347,0.016c1.833,0.254,2.783,1.685,2.78,3.097l0,0V3.19v0.005
			c0,0,0,0.001,0,0.003l0,0v0.006v0c-0.001,1.41-0.953,2.832-2.798,3.087l0,0l-0.329,0.017h-7.658v4.15H17.862z M19.891,4.22
			l7.71,0.001l0.181-0.014c0.59-0.123,0.855-0.56,0.862-1.018l0,0c-0.007-0.461-0.275-0.899-0.845-1.017l0,0l-0.198-0.014h-7.71
			V4.22L19.891,4.22z"/>
		<path fill="#FFFFFF" d="M44.52,4.241l-0.347-0.016L37.532,4.22l-0.198-0.014c-0.571-0.118-0.838-0.556-0.845-1.017
			c0.007-0.458,0.272-0.896,0.862-1.018l0.181-0.014l9.189,0.002V0.07h-9.189l-0.329,0.018c-1.846,0.254-2.796,1.676-2.797,3.086
			l0,0V3.18c0,0.001,0,0.003,0,0.003v0.005v0.004c-0.003,1.412,0.947,2.843,2.78,3.099l0.347,0.015l6.641,0.005l0.198,0.015
			c0.571,0.118,0.838,0.555,0.845,1.016c-0.006,0.459-0.272,0.896-0.862,1.018l-0.181,0.014l-9.765,0.001v2.089l9.765-0.002
			l0.329-0.017c1.846-0.255,2.796-1.678,2.798-3.087v0V7.352c0-0.002,0-0.002,0-0.003V7.344V7.34
			C47.303,5.927,46.353,4.496,44.52,4.241z"/>
	</g>
</g>
</svg>
