<?xml version="1.0" encoding="UTF-8" standalone="no"?>
<!-- Generator: Adobe Illustrator 16.0.0, SVG Export Plug-In . SVG Version: 6.00 Build 0)  -->

<svg
   xmlns:dc="http://purl.org/dc/elements/1.1/"
   xmlns:cc="http://creativecommons.org/ns#"
   xmlns:rdf="http://www.w3.org/1999/02/22-rdf-syntax-ns#"
   xmlns:svg="http://www.w3.org/2000/svg"
   xmlns="http://www.w3.org/2000/svg"
   xmlns:sodipodi="http://sodipodi.sourceforge.net/DTD/sodipodi-0.dtd"
   xmlns:inkscape="http://www.inkscape.org/namespaces/inkscape"
   version="1.0"
   id="Layer_1"
   x="0px"
   y="0px"
   width="426.5px"
   height="35px"
   viewBox="0 0 426.5 35"
   enable-background="new 0 0 426.5 35"
   xml:space="preserve"
   inkscape:version="0.48.4 r9939"
   sodipodi:docname="stable_images_meta.svg"><metadata
   id="metadata3043"><rdf:RDF><cc:Work
       rdf:about=""><dc:format>image/svg+xml</dc:format><dc:type
         rdf:resource="http://purl.org/dc/dcmitype/StillImage" /><dc:title></dc:title></cc:Work></rdf:RDF></metadata><defs
   id="defs3041" /><sodipodi:namedview
   pagecolor="#1919EF"
   bordercolor="#666666"
   borderopacity="1"
   objecttolerance="10"
   gridtolerance="10"
   guidetolerance="10"
   inkscape:pageopacity="0"
   inkscape:pageshadow="2"
   inkscape:window-width="1920"
   inkscape:window-height="1017"
   id="namedview3039"
   showgrid="false"
   inkscape:zoom="5.6834701"
   inkscape:cx="149.96988"
   inkscape:cy="-9.0260904"
   inkscape:window-x="-8"
   inkscape:window-y="-8"
   inkscape:window-maximized="1"
   inkscape:current-layer="Layer_1" />
<g
   id="Metascan_Online_for_Chrome_2_">
	<g
   id="g2987">
		<path
   fill="#FFFFFF"
   d="M2.713,5.578l0.044,28.705H1.3V1.161h0.928L14.77,28.146L27.312,1.161h0.927v33.122h-1.458l0.045-28.705    L15.432,29.734h-1.325L2.713,5.578z"
   id="path2989" />
		<path
   fill="#FFFFFF"
   d="M50.149,32.208V33.4c-1.722,0.662-4.636,1.104-7.021,1.104c-7.331,0-9.143-4.682-9.143-11.261    c0-6.581,1.812-11.262,9.143-11.262c7.331,0,8.125,4.77,8.125,11.262v0.617H35.355c0.088,4.991,1.458,9.451,7.773,9.451    C46.396,33.312,48.515,32.736,50.149,32.208z M49.928,22.625c0-4.814-0.486-9.45-6.8-9.45c-6.315,0-7.685,4.459-7.773,9.45H49.928    z"
   id="path2991" />
		<path
   fill="#FFFFFF"
   d="M67.155,34.504h-0.529c-4.947,0-7.419-1.943-7.419-5.918v-15.19H55.01v-0.751l4.196-0.486v-6.58    l1.325-0.176v6.8h7.552v1.194h-7.552v15.544c0,3.446,2.782,4.505,6.095,4.505h0.529V34.504z"
   id="path2993" />
		<path
   fill="#FFFFFF"
   d="M74.666,14.101v-1.192c1.235-0.442,3.753-0.928,6.359-0.928c6.756,0,8.082,2.739,8.082,7.067v15.234    h-0.663l-0.618-1.722c-1.854,1.326-5.255,1.943-7.463,1.943c-5.696,0-7.685-3.226-7.685-6.756c0-3.356,1.59-6.316,7.729-6.713    l7.287-0.442v-1.589c0-4.152-1.325-5.829-6.668-5.829C77.889,13.175,75.504,13.792,74.666,14.101z M79.877,22.271    c-4.461,0.31-5.83,2.562-5.83,5.477c0,2.605,1.016,5.563,6.404,5.563c2.782,0,5.299-0.84,7.243-2.033V21.74L79.877,22.271z"
   id="path2995" />
		<path
   fill="#FFFFFF"
   d="M108.187,28.367c0-3.225-1.015-4.33-6.182-4.948c-5.83-0.705-7.154-2.075-7.154-5.521    c0-3.401,1.943-5.917,7.994-5.917c1.943,0,4.372,0.309,6.138,0.883v1.192c-1.634-0.441-3.312-0.882-6.138-0.882    c-5.08,0-6.669,1.721-6.669,4.724c0,3.181,1.458,3.798,6.139,4.373c5.742,0.706,7.199,2.12,7.199,6.051    c0,3.179-1.898,6.182-8.656,6.182c-1.943,0-4.372-0.309-6.139-0.883v-1.192c1.635,0.44,3.313,0.883,6.139,0.883    C106.598,33.312,108.187,31.06,108.187,28.367z"
   id="path2997" />
		<path
   fill="#FFFFFF"
   d="M123.735,11.981c1.943,0,4.372,0.309,6.139,0.883v1.192c-1.634-0.441-3.313-0.882-6.139-0.882    c-6.58,0-7.772,4.855-7.772,10.068c0,5.211,1.193,10.068,7.772,10.068c2.826,0,4.505-0.442,6.139-0.883v1.192    c-1.767,0.574-4.196,0.883-6.139,0.883c-7.331,0-9.142-4.682-9.142-11.261C114.593,16.663,116.404,11.981,123.735,11.981z"
   id="path2999" />
		<path
   fill="#FFFFFF"
   d="M136.501,14.101v-1.192c1.236-0.442,3.753-0.928,6.359-0.928c6.756,0,8.081,2.739,8.081,7.067v15.234    h-0.662l-0.619-1.722c-1.854,1.326-5.255,1.943-7.463,1.943c-5.696,0-7.684-3.226-7.684-6.756c0-3.356,1.59-6.316,7.729-6.713    l7.287-0.442v-1.589c0-4.152-1.325-5.829-6.668-5.829C139.726,13.175,137.34,13.792,136.501,14.101z M141.712,22.271    c-4.46,0.31-5.83,2.562-5.83,5.477c0,2.605,1.016,5.563,6.403,5.563c2.783,0,5.3-0.84,7.243-2.033V21.74L141.712,22.271z"
   id="path3001" />
		<path
   fill="#FFFFFF"
   d="M171.878,18.03c0-3.886-2.163-4.855-5.829-4.855c-3.092,0-5.741,0.573-7.729,1.81v19.297h-1.412V12.202    h0.662l0.619,1.723c1.943-1.236,5.343-1.943,7.861-1.943c5.166,0,7.242,1.767,7.242,6.182v16.119h-1.413V18.03z"
   id="path3003" />
		<path
   fill="#FFFFFF"
   d="M210.438,11.981c7.729,0,9.098,4.77,9.098,11.262c0,6.491-1.369,11.261-9.098,11.261    s-9.098-4.77-9.098-11.261C201.341,16.751,202.71,11.981,210.438,11.981z M210.438,33.312c6.933,0,7.729-4.505,7.729-10.068    c0-5.565-0.796-10.068-7.729-10.068s-7.729,4.503-7.729,10.068C202.71,28.807,203.506,33.312,210.438,33.312z"
   id="path3005" />
		<path
   fill="#FFFFFF"
   d="M240.252,18.03c0-3.886-2.164-4.855-5.828-4.855c-3.09,0-5.742,0.573-7.729,1.81v19.297h-1.413V12.202    h0.662l0.621,1.723c1.941-1.236,5.342-1.943,7.859-1.943c5.166,0,7.24,1.767,7.24,6.182v16.119h-1.412V18.03z"
   id="path3007" />
		<path
   fill="#FFFFFF"
   d="M252.267,34.504c-2.339,0-3.356-1.06-3.356-3.226V1.161h1.328v30.031c0,1.678,0.44,2.253,2.028,2.253    V34.504z"
   id="path3009" />
		<path
   fill="#FFFFFF"
   d="M260.177,4.253c0.705,0,1.324,0.618,1.324,1.325c0,0.751-0.619,1.324-1.324,1.324    c-0.753,0-1.325-0.573-1.325-1.324C258.852,4.871,259.424,4.253,260.177,4.253z M262.87,34.504c-2.342,0-3.354-1.06-3.354-3.226    V12.202h1.323v18.99c0,1.678,0.443,2.253,2.031,2.253V34.504z"
   id="path3011" />
		<path
   fill="#FFFFFF"
   d="M283.806,18.03c0-3.886-2.166-4.855-5.831-4.855c-3.092,0-5.741,0.573-7.729,1.81v19.297h-1.412V12.202    h0.664l0.616,1.723c1.941-1.236,5.345-1.943,7.861-1.943c5.166,0,7.243,1.767,7.243,6.182v16.119h-1.412V18.03z"
   id="path3013" />
		<path
   fill="#FFFFFF"
   d="M306.907,32.208V33.4c-1.724,0.662-4.64,1.104-7.021,1.104c-7.336,0-9.145-4.682-9.145-11.261    c0-6.581,1.809-11.262,9.145-11.262c7.326,0,8.126,4.77,8.126,11.262v0.617h-15.899c0.087,4.991,1.456,9.451,7.773,9.451    C303.15,33.312,305.271,32.736,306.907,32.208z M306.683,22.625c0-4.814-0.483-9.45-6.797-9.45c-6.317,0-7.687,4.459-7.773,9.45    H306.683z"
   id="path3015" />
		<path
   fill="#FFFFFF"
   d="M326.773,24.34h-1.999v-0.357l1.999-0.231v-2.376c0-1.892,1.134-2.962,3.656-2.962    c0.316,0,1.094,0.041,1.305,0.082v0.568c-0.254-0.042-0.861-0.083-1.305-0.083c-1.766,0-3.027,0.588-3.027,2.395v2.396h3.595    v0.568h-3.595v9.942h-0.629V24.34z"
   id="path3017" />
		<path
   fill="#FFFFFF"
   d="M337.203,23.667c3.679,0,4.332,2.271,4.332,5.361s-0.653,5.358-4.332,5.358    c-3.678,0-4.332-2.269-4.332-5.358S333.525,23.667,337.203,23.667z M337.203,33.82c3.303,0,3.679-2.144,3.679-4.792    c0-2.649-0.376-4.794-3.679-4.794c-3.3,0-3.678,2.145-3.678,4.794C333.525,31.677,333.903,33.82,337.203,33.82z"
   id="path3019" />
		<path
   fill="#FFFFFF"
   d="M349.613,24.3c-0.297-0.044-0.632-0.065-0.988-0.065c-1.473,0-2.733,0.273-3.679,0.863v9.185h-0.675    V23.771h0.318l0.292,0.819c0.929-0.587,2.546-0.924,3.743-0.924c0.356,0,0.691,0.022,0.988,0.063V24.3z"
   id="path3021" />
		<path
   fill="#FFFFFF"
   d="M364.653,18.413c1.828,0,3.027,0.271,3.867,0.608v0.651c-1.305-0.483-2.333-0.651-3.867-0.651    c-3.933,0-5.423,2.46-5.423,7.379c0,4.92,1.49,7.379,5.423,7.379c1.534,0,2.563-0.169,3.867-0.652v0.652    c-0.84,0.335-2.039,0.607-3.867,0.607c-4.648,0-6.099-2.9-6.099-7.986C358.555,21.313,360.005,18.413,364.653,18.413z"
   id="path3023" />
		<path
   fill="#FFFFFF"
   d="M371.156,18.516h0.629v6.056c0.927-0.567,2.501-0.904,3.682-0.904c2.457,0,3.446,0.841,3.446,2.943v7.672    h-0.676v-7.735c0-1.849-1.028-2.313-2.771-2.313c-1.475,0-2.736,0.273-3.682,0.863v9.185h-0.629V18.516z"
   id="path3025" />
		<path
   fill="#FFFFFF"
   d="M387.096,24.3c-0.297-0.044-0.632-0.065-0.988-0.065c-1.472,0-2.736,0.273-3.679,0.863v9.185h-0.672    V23.771h0.313l0.294,0.819c0.927-0.587,2.547-0.924,3.743-0.924c0.356,0,0.691,0.022,0.988,0.063V24.3z"
   id="path3027" />
		<path
   fill="#FFFFFF"
   d="M393.323,23.667c3.676,0,4.329,2.271,4.329,5.361s-0.653,5.358-4.329,5.358    c-3.681,0-4.334-2.269-4.334-5.358S389.643,23.667,393.323,23.667z M393.323,33.82c3.298,0,3.676-2.144,3.676-4.792    c0-2.649-0.378-4.794-3.676-4.794c-3.303,0-3.681,2.145-3.681,4.794C389.643,31.677,390.021,33.82,393.323,33.82z"
   id="path3029" />
		<path
   fill="#FFFFFF"
   d="M406.719,26.339c0-1.81-0.737-2.104-2.312-2.104c-1.389,0-2.398,0.273-3.347,0.863v9.185h-0.669V23.771    h0.313l0.298,0.819c0.923-0.587,2.29-0.924,3.405-0.924c1.469,0,2.269,0.356,2.671,1.113c1.28-0.798,2.604-1.113,3.654-1.113    c2.271,0,2.986,0.841,2.986,2.733v7.882h-0.672v-7.943c0-1.81-0.737-2.104-2.314-2.104c-1.28,0-2.374,0.337-3.465,1.03    c0.081,0.337,0.124,0.715,0.124,1.136v7.882h-0.673V26.339z"
   id="path3031" />
		<path
   fill="#FFFFFF"
   d="M424.049,33.296v0.566c-0.82,0.316-2.209,0.524-3.34,0.524c-3.492,0-4.354-2.227-4.354-5.358    c0-3.133,0.861-5.361,4.354-5.361c3.486,0,3.864,2.271,3.864,5.361v0.292h-7.567c0.043,2.376,0.694,4.5,3.703,4.5    C422.262,33.82,423.271,33.548,424.049,33.296z M423.944,28.734c0-2.293-0.232-4.5-3.235-4.5c-3.009,0-3.66,2.123-3.703,4.5    H423.944z"
   id="path3033" />
	</g>
	<g
   id="g3035">
		<path
   fill="#FFFFFF"
   d="M183.92,3.545c3.986,0,7.084,2.448,7.084,6.867c0,4.42-3.098,6.867-7.084,6.867s-7.083-2.447-7.083-6.867    C176.837,5.993,179.934,3.545,183.92,3.545z M183.92,16.673c3.834,0,6.455-2.253,6.455-6.261s-2.621-6.26-6.455-6.26    s-6.456,2.252-6.456,6.26S180.086,16.673,183.92,16.673z M181.819,14.484h-0.651V6.359h3.206c1.864,0,2.361,1.149,2.361,2.298    c0,1.235-0.627,1.993-1.515,2.188l1.776,3.639h-0.781l-1.646-3.53h-2.75V14.484z M181.819,10.325h2.729    c1.256,0,1.517-0.628,1.517-1.667c0-0.694-0.152-1.711-1.538-1.711h-2.708V10.325z"
   id="path3037" />
	</g>
</g>
</svg>